<svg xmlns="http://www.w3.org/2000/svg" xmlns:xlink="http://www.w3.org/1999/xlink" width="2000" zoomAndPan="magnify" viewBox="0 0 1500 1499.999933" height="2000" preserveAspectRatio="xMidYMid meet" version="1.0"><defs><g/><clipPath id="98f7ffbaf3"><rect x="0" width="1228" y="0" height="368"/></clipPath><clipPath id="26ba6142bf"><rect x="0" width="1080" y="0" height="162"/></clipPath><clipPath id="751e2364d7"><path d="M 157.695312 166.144531 L 1341.945312 166.144531 L 1341.945312 804 L 157.695312 804 Z M 157.695312 166.144531 " clip-rule="nonzero"/></clipPath></defs><g transform="matrix(1, 0, 0, 1, 146, 850)"><g clip-path="url(#98f7ffbaf3)"><g fill="#1a1818" fill-opacity="1"><g transform="translate(5.612229, 285.011228)"><g><path d="M 105.09375 0 L 65.578125 -139.203125 L 64.375 -139.203125 C 64.726562 -135.585938 65.101562 -130.695312 65.5 -124.53125 C 65.894531 -118.363281 66.269531 -111.707031 66.625 -104.5625 C 66.976562 -97.425781 67.15625 -90.554688 67.15625 -83.953125 L 67.15625 0 L 20.890625 0 L 20.890625 -193.28125 L 90.421875 -193.28125 L 130.75 -56.046875 L 131.8125 -56.046875 L 171.328125 -193.28125 L 241 -193.28125 L 241 0 L 193.015625 0 L 193.015625 -84.734375 C 193.015625 -90.816406 193.125 -97.363281 193.34375 -104.375 C 193.5625 -111.382812 193.828125 -117.992188 194.140625 -124.203125 C 194.453125 -130.421875 194.738281 -135.332031 195 -138.9375 L 193.8125 -138.9375 L 154.8125 0 Z M 105.09375 0 "/></g></g></g><g fill="#1a1818" fill-opacity="1"><g transform="translate(291.425473, 285.011228)"><g><path d="M 139.46875 0 L 129.953125 -36.21875 L 67.15625 -36.21875 L 57.375 0 L 0 0 L 63.0625 -194.078125 L 132.734375 -194.078125 L 196.578125 0 Z M 119.109375 -79.0625 L 110.78125 -110.78125 C 109.90625 -114.21875 108.628906 -119.128906 106.953125 -125.515625 C 105.273438 -131.910156 103.617188 -138.523438 101.984375 -145.359375 C 100.359375 -152.191406 99.101562 -157.8125 98.21875 -162.21875 C 97.425781 -157.8125 96.300781 -152.367188 94.84375 -145.890625 C 93.394531 -139.410156 91.898438 -132.992188 90.359375 -126.640625 C 88.816406 -120.296875 87.472656 -115.007812 86.328125 -110.78125 L 78 -79.0625 Z M 119.109375 -79.0625 "/></g></g></g><g fill="#1a1818" fill-opacity="1"><g transform="translate(512.07461, 285.011228)"><g><path d="M 106.15625 0 L 53.9375 0 L 53.9375 -150.578125 L 6.75 -150.578125 L 6.75 -193.28125 L 153.21875 -193.28125 L 153.21875 -150.578125 L 106.15625 -150.578125 Z M 106.15625 0 "/></g></g></g><g fill="#1a1818" fill-opacity="1"><g transform="translate(696.110171, 285.011228)"><g><path d="M 186.53125 0 L 134.046875 0 L 134.046875 -78.796875 L 73.375 -78.796875 L 73.375 0 L 20.890625 0 L 20.890625 -193.28125 L 73.375 -193.28125 L 73.375 -121.625 L 134.046875 -121.625 L 134.046875 -193.28125 L 186.53125 -193.28125 Z M 186.53125 0 "/></g></g></g><g fill="#1a1818" fill-opacity="1"><g transform="translate(927.597969, 285.011228)"><g><path d="M 20.890625 0 L 20.890625 -193.28125 L 73.375 -193.28125 L 73.375 0 Z M 20.890625 0 "/></g></g></g><g fill="#1a1818" fill-opacity="1"><g transform="translate(1045.940707, 285.011228)"><g><path d="M 147.265625 -58.703125 C 147.265625 -48.210938 144.617188 -38.273438 139.328125 -28.890625 C 134.046875 -19.503906 125.832031 -11.898438 114.6875 -6.078125 C 103.539062 -0.265625 89.148438 2.640625 71.515625 2.640625 C 62.703125 2.640625 54.96875 2.242188 48.3125 1.453125 C 41.664062 0.660156 35.476562 -0.632812 29.75 -2.4375 C 24.019531 -4.25 18.066406 -6.609375 11.890625 -9.515625 L 11.890625 -56.046875 C 22.378906 -50.765625 32.957031 -46.734375 43.625 -43.953125 C 54.289062 -41.179688 63.941406 -39.796875 72.578125 -39.796875 C 77.773438 -39.796875 82.023438 -40.410156 85.328125 -41.640625 C 88.640625 -42.878906 91.085938 -44.578125 92.671875 -46.734375 C 94.253906 -48.890625 95.046875 -51.378906 95.046875 -54.203125 C 95.046875 -57.554688 93.878906 -60.398438 91.546875 -62.734375 C 89.210938 -65.066406 85.488281 -67.507812 80.375 -70.0625 C 75.269531 -72.625 68.53125 -75.796875 60.15625 -79.578125 C 53.007812 -82.929688 46.550781 -86.367188 40.78125 -89.890625 C 35.007812 -93.421875 30.070312 -97.453125 25.96875 -101.984375 C 21.875 -106.523438 18.722656 -111.835938 16.515625 -117.921875 C 14.316406 -124.003906 13.21875 -131.1875 13.21875 -139.46875 C 13.21875 -151.894531 16.28125 -162.316406 22.40625 -170.734375 C 28.53125 -179.148438 37.078125 -185.472656 48.046875 -189.703125 C 59.023438 -193.941406 71.695312 -196.0625 86.0625 -196.0625 C 98.664062 -196.0625 110.015625 -194.648438 120.109375 -191.828125 C 130.203125 -189.003906 139.253906 -185.785156 147.265625 -182.171875 L 131.28125 -141.859375 C 122.988281 -145.640625 114.832031 -148.65625 106.8125 -150.90625 C 98.789062 -153.15625 91.347656 -154.28125 84.484375 -154.28125 C 79.984375 -154.28125 76.300781 -153.726562 73.4375 -152.625 C 70.570312 -151.519531 68.457031 -150.039062 67.09375 -148.1875 C 65.726562 -146.34375 65.046875 -144.234375 65.046875 -141.859375 C 65.046875 -138.859375 66.210938 -136.164062 68.546875 -133.78125 C 70.878906 -131.40625 74.800781 -128.828125 80.3125 -126.046875 C 85.820312 -123.273438 93.335938 -119.6875 102.859375 -115.28125 C 112.285156 -111.050781 120.300781 -106.488281 126.90625 -101.59375 C 133.519531 -96.707031 138.566406 -90.847656 142.046875 -84.015625 C 145.523438 -77.179688 147.265625 -68.742188 147.265625 -58.703125 Z M 147.265625 -58.703125 "/></g></g></g></g></g><g transform="matrix(1, 0, 0, 1, 257, 1184)"><g clip-path="url(#26ba6142bf)"><g fill="#1a1818" fill-opacity="1"><g transform="translate(5.932857, 123.078912)"><g><path d="M 47.453125 -76.375 C 38.234375 -76.375 30.953125 -73.300781 25.609375 -67.15625 C 20.273438 -61.019531 17.609375 -52.613281 17.609375 -41.9375 C 17.609375 -30.96875 20.179688 -22.488281 25.328125 -16.5 C 30.472656 -10.507812 37.8125 -7.515625 47.34375 -7.515625 C 53.195312 -7.515625 59.867188 -8.566406 67.359375 -10.671875 L 67.359375 -2.125 C 61.546875 0.0507812 54.375 1.140625 45.84375 1.140625 C 33.488281 1.140625 23.953125 -2.601562 17.234375 -10.09375 C 10.523438 -17.59375 7.171875 -28.25 7.171875 -42.0625 C 7.171875 -50.707031 8.785156 -58.28125 12.015625 -64.78125 C 15.253906 -71.28125 19.921875 -76.289062 26.015625 -79.8125 C 32.117188 -83.332031 39.300781 -85.09375 47.5625 -85.09375 C 56.363281 -85.09375 64.054688 -83.488281 70.640625 -80.28125 L 66.5 -71.890625 C 60.15625 -74.878906 53.804688 -76.375 47.453125 -76.375 Z M 47.453125 -76.375 "/></g></g></g><g fill="#1a1818" fill-opacity="1"><g transform="translate(174.076795, 123.078912)"><g><path d="M 84.34375 -42.0625 C 84.34375 -28.632812 80.945312 -18.078125 74.15625 -10.390625 C 67.375 -2.703125 57.9375 1.140625 45.84375 1.140625 C 33.488281 1.140625 23.953125 -2.632812 17.234375 -10.1875 C 10.523438 -17.738281 7.171875 -28.398438 7.171875 -42.171875 C 7.171875 -55.828125 10.535156 -66.410156 17.265625 -73.921875 C 24.003906 -81.441406 33.570312 -85.203125 45.96875 -85.203125 C 58.007812 -85.203125 67.414062 -81.378906 74.1875 -73.734375 C 80.957031 -66.085938 84.34375 -55.53125 84.34375 -42.0625 Z M 17.5 -42.0625 C 17.5 -30.695312 19.914062 -22.078125 24.75 -16.203125 C 29.59375 -10.335938 36.625 -7.40625 45.84375 -7.40625 C 55.144531 -7.40625 62.164062 -10.328125 66.90625 -16.171875 C 71.644531 -22.023438 74.015625 -30.65625 74.015625 -42.0625 C 74.015625 -53.34375 71.648438 -61.898438 66.921875 -67.734375 C 62.203125 -73.566406 55.21875 -76.484375 45.96875 -76.484375 C 36.664062 -76.484375 29.59375 -73.546875 24.75 -67.671875 C 19.914062 -61.804688 17.5 -53.269531 17.5 -42.0625 Z M 17.5 -42.0625 "/></g></g></g><g fill="#1a1818" fill-opacity="1"><g transform="translate(359.603534, 123.078912)"><g><path d="M 21.28125 -34.890625 L 21.28125 0 L 11.53125 0 L 11.53125 -83.890625 L 34.546875 -83.890625 C 44.835938 -83.890625 52.4375 -81.914062 57.34375 -77.96875 C 62.257812 -74.03125 64.71875 -68.101562 64.71875 -60.1875 C 64.71875 -49.09375 59.097656 -41.597656 47.859375 -37.703125 L 70.640625 0 L 59.109375 0 L 38.796875 -34.890625 Z M 21.28125 -43.265625 L 34.65625 -43.265625 C 41.539062 -43.265625 46.585938 -44.628906 49.796875 -47.359375 C 53.015625 -50.097656 54.625 -54.203125 54.625 -59.671875 C 54.625 -65.222656 52.988281 -69.222656 49.71875 -71.671875 C 46.445312 -74.117188 41.195312 -75.34375 33.96875 -75.34375 L 21.28125 -75.34375 Z M 21.28125 -43.265625 "/></g></g></g><g fill="#1a1818" fill-opacity="1"><g transform="translate(526.255886, 123.078912)"><g><path d="M 78.5 -42.75 C 78.5 -28.90625 74.738281 -18.316406 67.21875 -10.984375 C 59.707031 -3.660156 48.890625 0 34.765625 0 L 11.53125 0 L 11.53125 -83.890625 L 37.234375 -83.890625 C 50.285156 -83.890625 60.425781 -80.273438 67.65625 -73.046875 C 74.882812 -65.816406 78.5 -55.71875 78.5 -42.75 Z M 68.171875 -42.40625 C 68.171875 -53.34375 65.425781 -61.582031 59.9375 -67.125 C 54.445312 -72.675781 46.289062 -75.453125 35.46875 -75.453125 L 21.28125 -75.453125 L 21.28125 -8.4375 L 33.171875 -8.4375 C 44.796875 -8.4375 53.535156 -11.296875 59.390625 -17.015625 C 65.242188 -22.734375 68.171875 -31.195312 68.171875 -42.40625 Z M 68.171875 -42.40625 "/></g></g></g><g fill="#1a1818" fill-opacity="1"><g transform="translate(705.931006, 123.078912)"><g><path d="M 84.34375 -42.0625 C 84.34375 -28.632812 80.945312 -18.078125 74.15625 -10.390625 C 67.375 -2.703125 57.9375 1.140625 45.84375 1.140625 C 33.488281 1.140625 23.953125 -2.632812 17.234375 -10.1875 C 10.523438 -17.738281 7.171875 -28.398438 7.171875 -42.171875 C 7.171875 -55.828125 10.535156 -66.410156 17.265625 -73.921875 C 24.003906 -81.441406 33.570312 -85.203125 45.96875 -85.203125 C 58.007812 -85.203125 67.414062 -81.378906 74.1875 -73.734375 C 80.957031 -66.085938 84.34375 -55.53125 84.34375 -42.0625 Z M 17.5 -42.0625 C 17.5 -30.695312 19.914062 -22.078125 24.75 -16.203125 C 29.59375 -10.335938 36.625 -7.40625 45.84375 -7.40625 C 55.144531 -7.40625 62.164062 -10.328125 66.90625 -16.171875 C 71.644531 -22.023438 74.015625 -30.65625 74.015625 -42.0625 C 74.015625 -53.34375 71.648438 -61.898438 66.921875 -67.734375 C 62.203125 -73.566406 55.21875 -76.484375 45.96875 -76.484375 C 36.664062 -76.484375 29.59375 -73.546875 24.75 -67.671875 C 19.914062 -61.804688 17.5 -53.269531 17.5 -42.0625 Z M 17.5 -42.0625 "/></g></g></g><g fill="#1a1818" fill-opacity="1"><g transform="translate(891.457745, 123.078912)"><g><path d="M 77.0625 0 L 65.9375 0 L 20.078125 -70.40625 L 19.625 -70.40625 C 20.238281 -62.144531 20.546875 -54.570312 20.546875 -47.6875 L 20.546875 0 L 11.53125 0 L 11.53125 -83.890625 L 22.546875 -83.890625 L 68.28125 -13.765625 L 68.734375 -13.765625 C 68.660156 -14.804688 68.488281 -18.128906 68.21875 -23.734375 C 67.957031 -29.335938 67.863281 -33.34375 67.9375 -35.75 L 67.9375 -83.890625 L 77.0625 -83.890625 Z M 77.0625 0 "/></g></g></g></g></g><g clip-path="url(#751e2364d7)"><path fill="#1a1818" d="M 1232.015625 612.804688 L 1287.089844 708.210938 L 1342.164062 803.589844 L 1121.867188 803.589844 L 1176.941406 708.210938 Z M 1045.308594 166.878906 L 1122.3125 300.917969 L 878.597656 802.203125 L 735.332031 802.203125 Z M 267.816406 611.46875 L 157.695312 609.089844 L 263.6875 802.230469 L 320.800781 708.050781 L 377.964844 613.847656 Z M 444.015625 803.589844 L 587.28125 803.589844 L 831 302.304688 L 753.996094 168.265625 Z M 444.015625 803.589844 " fill-opacity="1" fill-rule="nonzero"/></g></svg>