<svg xmlns="http://www.w3.org/2000/svg" xmlns:xlink="http://www.w3.org/1999/xlink" width="2000" zoomAndPan="magnify" viewBox="0 0 1500 1499.999933" height="2000" preserveAspectRatio="xMidYMid meet" version="1.0"><defs><g/><clipPath id="4d16680f3c"><rect x="0" width="874" y="0" height="263"/></clipPath><clipPath id="1511365317"><rect x="0" width="769" y="0" height="116"/></clipPath><clipPath id="e38b1c4d2d"><path d="M 328.410156 334.425781 L 1171.410156 334.425781 L 1171.410156 788.925781 L 328.410156 788.925781 Z M 328.410156 334.425781 " clip-rule="nonzero"/></clipPath></defs><g transform="matrix(1, 0, 0, 1, 320, 821)"><g clip-path="url(#4d16680f3c)"><g fill="#1a1818" fill-opacity="1"><g transform="translate(4.08137, 203.042065)"><g><path d="M 74.796875 0 L 46.671875 -99.078125 L 45.828125 -99.078125 C 46.078125 -96.503906 46.34375 -93.019531 46.625 -88.625 C 46.90625 -84.238281 47.171875 -79.503906 47.421875 -74.421875 C 47.671875 -69.347656 47.796875 -64.457031 47.796875 -59.75 L 47.796875 0 L 14.859375 0 L 14.859375 -137.5625 L 64.359375 -137.5625 L 93.0625 -39.890625 L 93.8125 -39.890625 L 121.9375 -137.5625 L 171.53125 -137.5625 L 171.53125 0 L 137.375 0 L 137.375 -60.3125 C 137.375 -64.644531 137.453125 -69.300781 137.609375 -74.28125 C 137.765625 -79.269531 137.953125 -83.972656 138.171875 -88.390625 C 138.390625 -92.816406 138.59375 -96.316406 138.78125 -98.890625 L 137.9375 -98.890625 L 110.1875 0 Z M 74.796875 0 "/></g></g></g><g fill="#1a1818" fill-opacity="1"><g transform="translate(207.51662, 203.042065)"><g><path d="M 99.265625 0 L 92.5 -25.78125 L 47.796875 -25.78125 L 40.84375 0 L 0 0 L 44.875 -138.125 L 94.46875 -138.125 L 139.921875 0 Z M 84.78125 -56.265625 L 78.84375 -78.84375 C 78.21875 -81.289062 77.304688 -84.785156 76.109375 -89.328125 C 74.921875 -93.878906 73.75 -98.585938 72.59375 -103.453125 C 71.4375 -108.316406 70.539062 -112.316406 69.90625 -115.453125 C 69.34375 -112.316406 68.539062 -108.441406 67.5 -103.828125 C 66.46875 -99.222656 65.40625 -94.660156 64.3125 -90.140625 C 63.21875 -85.617188 62.257812 -81.851562 61.4375 -78.84375 L 55.515625 -56.265625 Z M 84.78125 -56.265625 "/></g></g></g><g fill="#1a1818" fill-opacity="1"><g transform="translate(364.569566, 203.042065)"><g><path d="M 75.5625 0 L 38.390625 0 L 38.390625 -107.171875 L 4.796875 -107.171875 L 4.796875 -137.5625 L 109.046875 -137.5625 L 109.046875 -107.171875 L 75.5625 -107.171875 Z M 75.5625 0 "/></g></g></g><g fill="#1a1818" fill-opacity="1"><g transform="translate(495.561817, 203.042065)"><g><path d="M 132.765625 0 L 95.40625 0 L 95.40625 -56.078125 L 52.21875 -56.078125 L 52.21875 0 L 14.859375 0 L 14.859375 -137.5625 L 52.21875 -137.5625 L 52.21875 -86.5625 L 95.40625 -86.5625 L 95.40625 -137.5625 L 132.765625 -137.5625 Z M 132.765625 0 "/></g></g></g><g fill="#1a1818" fill-opacity="1"><g transform="translate(660.329471, 203.042065)"><g><path d="M 14.859375 0 L 14.859375 -137.5625 L 52.21875 -137.5625 L 52.21875 0 Z M 14.859375 0 "/></g></g></g><g fill="#1a1818" fill-opacity="1"><g transform="translate(744.563092, 203.042065)"><g><path d="M 104.8125 -41.78125 C 104.8125 -34.3125 102.929688 -27.234375 99.171875 -20.546875 C 95.410156 -13.867188 89.5625 -8.460938 81.625 -4.328125 C 73.6875 -0.191406 63.445312 1.875 50.90625 1.875 C 44.632812 1.875 39.128906 1.59375 34.390625 1.03125 C 29.648438 0.46875 25.242188 -0.453125 21.171875 -1.734375 C 17.097656 -3.023438 12.863281 -4.707031 8.46875 -6.78125 L 8.46875 -39.890625 C 15.9375 -36.128906 23.460938 -33.257812 31.046875 -31.28125 C 38.640625 -29.3125 45.507812 -28.328125 51.65625 -28.328125 C 55.351562 -28.328125 58.378906 -28.765625 60.734375 -29.640625 C 63.085938 -30.515625 64.828125 -31.71875 65.953125 -33.25 C 67.085938 -34.789062 67.65625 -36.566406 67.65625 -38.578125 C 67.65625 -40.960938 66.820312 -42.984375 65.15625 -44.640625 C 63.5 -46.304688 60.847656 -48.046875 57.203125 -49.859375 C 53.566406 -51.679688 48.769531 -53.941406 42.8125 -56.640625 C 37.726562 -59.023438 33.128906 -61.472656 29.015625 -63.984375 C 24.910156 -66.492188 21.398438 -69.363281 18.484375 -72.59375 C 15.566406 -75.820312 13.320312 -79.597656 11.75 -83.921875 C 10.1875 -88.253906 9.40625 -93.367188 9.40625 -99.265625 C 9.40625 -108.109375 11.582031 -115.523438 15.9375 -121.515625 C 20.300781 -127.503906 26.390625 -132.003906 34.203125 -135.015625 C 42.015625 -138.035156 51.03125 -139.546875 61.25 -139.546875 C 70.21875 -139.546875 78.289062 -138.539062 85.46875 -136.53125 C 92.65625 -134.519531 99.101562 -132.226562 104.8125 -129.65625 L 93.4375 -100.96875 C 87.539062 -103.664062 81.738281 -105.8125 76.03125 -107.40625 C 70.320312 -109.007812 65.019531 -109.8125 60.125 -109.8125 C 56.925781 -109.8125 54.304688 -109.414062 52.265625 -108.625 C 50.222656 -107.84375 48.71875 -106.789062 47.75 -105.46875 C 46.78125 -104.15625 46.296875 -102.65625 46.296875 -100.96875 C 46.296875 -98.832031 47.125 -96.914062 48.78125 -95.21875 C 50.445312 -93.53125 53.238281 -91.695312 57.15625 -89.71875 C 61.082031 -87.738281 66.429688 -85.179688 73.203125 -82.046875 C 79.910156 -79.035156 85.617188 -75.789062 90.328125 -72.3125 C 95.035156 -68.832031 98.625 -64.660156 101.09375 -59.796875 C 103.570312 -54.929688 104.8125 -48.925781 104.8125 -41.78125 Z M 104.8125 -41.78125 "/></g></g></g></g></g><g transform="matrix(1, 0, 0, 1, 399, 1059)"><g clip-path="url(#1511365317)"><g fill="#1a1818" fill-opacity="1"><g transform="translate(4.316867, 87.515975)"><g><path d="M 33.78125 -54.359375 C 27.21875 -54.359375 22.035156 -52.171875 18.234375 -47.796875 C 14.429688 -43.429688 12.53125 -37.453125 12.53125 -29.859375 C 12.53125 -22.046875 14.363281 -16.003906 18.03125 -11.734375 C 21.695312 -7.472656 26.914062 -5.34375 33.6875 -5.34375 C 37.851562 -5.34375 42.609375 -6.09375 47.953125 -7.59375 L 47.953125 -1.515625 C 43.804688 0.0351562 38.695312 0.8125 32.625 0.8125 C 23.832031 0.8125 17.046875 -1.851562 12.265625 -7.1875 C 7.492188 -12.519531 5.109375 -20.101562 5.109375 -29.9375 C 5.109375 -36.09375 6.253906 -41.484375 8.546875 -46.109375 C 10.847656 -50.734375 14.171875 -54.296875 18.515625 -56.796875 C 22.859375 -59.304688 27.972656 -60.5625 33.859375 -60.5625 C 40.117188 -60.5625 45.59375 -59.421875 50.28125 -57.140625 L 47.328125 -51.171875 C 42.804688 -53.296875 38.289062 -54.359375 33.78125 -54.359375 Z M 33.78125 -54.359375 "/></g></g></g><g fill="#1a1818" fill-opacity="1"><g transform="translate(123.997837, 87.515975)"><g><path d="M 60.03125 -29.9375 C 60.03125 -20.375 57.613281 -12.859375 52.78125 -7.390625 C 47.945312 -1.921875 41.226562 0.8125 32.625 0.8125 C 23.832031 0.8125 17.046875 -1.875 12.265625 -7.25 C 7.492188 -12.625 5.109375 -20.210938 5.109375 -30.015625 C 5.109375 -39.734375 7.503906 -47.265625 12.296875 -52.609375 C 17.085938 -57.960938 23.894531 -60.640625 32.71875 -60.640625 C 41.289062 -60.640625 47.984375 -57.914062 52.796875 -52.46875 C 57.617188 -47.03125 60.03125 -39.519531 60.03125 -29.9375 Z M 12.453125 -29.9375 C 12.453125 -21.851562 14.171875 -15.71875 17.609375 -11.53125 C 21.054688 -7.351562 26.0625 -5.265625 32.625 -5.265625 C 39.25 -5.265625 44.25 -7.347656 47.625 -11.515625 C 51 -15.679688 52.6875 -21.820312 52.6875 -29.9375 C 52.6875 -37.96875 51.003906 -44.054688 47.640625 -48.203125 C 44.273438 -52.359375 39.300781 -54.4375 32.71875 -54.4375 C 26.09375 -54.4375 21.054688 -52.347656 17.609375 -48.171875 C 14.171875 -43.992188 12.453125 -37.914062 12.453125 -29.9375 Z M 12.453125 -29.9375 "/></g></g></g><g fill="#1a1818" fill-opacity="1"><g transform="translate(256.051483, 87.515975)"><g><path d="M 15.15625 -24.828125 L 15.15625 0 L 8.203125 0 L 8.203125 -59.703125 L 24.578125 -59.703125 C 31.910156 -59.703125 37.320312 -58.300781 40.8125 -55.5 C 44.3125 -52.695312 46.0625 -48.476562 46.0625 -42.84375 C 46.0625 -34.945312 42.0625 -29.609375 34.0625 -26.828125 L 50.28125 0 L 42.0625 0 L 27.609375 -24.828125 Z M 15.15625 -30.796875 L 24.671875 -30.796875 C 29.566406 -30.796875 33.15625 -31.769531 35.4375 -33.71875 C 37.726562 -35.664062 38.875 -38.582031 38.875 -42.46875 C 38.875 -46.414062 37.707031 -49.257812 35.375 -51 C 33.050781 -52.75 29.316406 -53.625 24.171875 -53.625 L 15.15625 -53.625 Z M 15.15625 -30.796875 "/></g></g></g><g fill="#1a1818" fill-opacity="1"><g transform="translate(374.670777, 87.515975)"><g><path d="M 55.875 -30.421875 C 55.875 -20.566406 53.195312 -13.03125 47.84375 -7.8125 C 42.488281 -2.601562 34.789062 0 24.75 0 L 8.203125 0 L 8.203125 -59.703125 L 26.5 -59.703125 C 35.789062 -59.703125 43.007812 -57.128906 48.15625 -51.984375 C 53.300781 -46.835938 55.875 -39.648438 55.875 -30.421875 Z M 48.515625 -30.1875 C 48.515625 -37.96875 46.5625 -43.832031 42.65625 -47.78125 C 38.75 -51.726562 32.941406 -53.703125 25.234375 -53.703125 L 15.15625 -53.703125 L 15.15625 -6 L 23.609375 -6 C 31.878906 -6 38.097656 -8.035156 42.265625 -12.109375 C 46.429688 -16.179688 48.515625 -22.207031 48.515625 -30.1875 Z M 48.515625 -30.1875 "/></g></g></g><g fill="#1a1818" fill-opacity="1"><g transform="translate(502.559376, 87.515975)"><g><path d="M 60.03125 -29.9375 C 60.03125 -20.375 57.613281 -12.859375 52.78125 -7.390625 C 47.945312 -1.921875 41.226562 0.8125 32.625 0.8125 C 23.832031 0.8125 17.046875 -1.875 12.265625 -7.25 C 7.492188 -12.625 5.109375 -20.210938 5.109375 -30.015625 C 5.109375 -39.734375 7.503906 -47.265625 12.296875 -52.609375 C 17.085938 -57.960938 23.894531 -60.640625 32.71875 -60.640625 C 41.289062 -60.640625 47.984375 -57.914062 52.796875 -52.46875 C 57.617188 -47.03125 60.03125 -39.519531 60.03125 -29.9375 Z M 12.453125 -29.9375 C 12.453125 -21.851562 14.171875 -15.71875 17.609375 -11.53125 C 21.054688 -7.351562 26.0625 -5.265625 32.625 -5.265625 C 39.25 -5.265625 44.25 -7.347656 47.625 -11.515625 C 51 -15.679688 52.6875 -21.820312 52.6875 -29.9375 C 52.6875 -37.96875 51.003906 -44.054688 47.640625 -48.203125 C 44.273438 -52.359375 39.300781 -54.4375 32.71875 -54.4375 C 26.09375 -54.4375 21.054688 -52.347656 17.609375 -48.171875 C 14.171875 -43.992188 12.453125 -37.914062 12.453125 -29.9375 Z M 12.453125 -29.9375 "/></g></g></g><g fill="#1a1818" fill-opacity="1"><g transform="translate(634.613022, 87.515975)"><g><path d="M 54.84375 0 L 46.921875 0 L 14.296875 -50.109375 L 13.96875 -50.109375 C 14.40625 -44.234375 14.625 -38.84375 14.625 -33.9375 L 14.625 0 L 8.203125 0 L 8.203125 -59.703125 L 16.046875 -59.703125 L 48.59375 -9.796875 L 48.921875 -9.796875 C 48.867188 -10.535156 48.742188 -12.898438 48.546875 -16.890625 C 48.359375 -20.878906 48.296875 -23.726562 48.359375 -25.4375 L 48.359375 -59.703125 L 54.84375 -59.703125 Z M 54.84375 0 "/></g></g></g></g></g><g clip-path="url(#e38b1c4d2d)"><path fill="#1a1818" d="M 1093.09375 652.34375 L 1132.292969 720.253906 L 1171.492188 788.140625 L 1014.691406 788.140625 L 1053.890625 720.253906 Z M 960.195312 334.945312 L 1015.007812 430.351562 L 841.535156 787.15625 L 739.5625 787.15625 Z M 406.792969 651.394531 L 328.410156 649.703125 L 403.851562 787.175781 L 444.503906 720.140625 L 485.195312 653.089844 Z M 532.207031 788.140625 L 634.183594 788.140625 L 807.65625 431.335938 L 752.84375 335.929688 Z M 532.207031 788.140625 " fill-opacity="1" fill-rule="nonzero"/></g></svg>