<svg xmlns="http://www.w3.org/2000/svg" xmlns:xlink="http://www.w3.org/1999/xlink" width="2000" zoomAndPan="magnify" viewBox="0 0 1500 1499.999933" height="2000" preserveAspectRatio="xMidYMid meet" version="1.0"><defs><g/><clipPath id="0fcd082eed"><rect x="0" width="1228" y="0" height="349"/></clipPath><clipPath id="5076636b21"><path d="M 157.695312 467 L 1341.945312 467 L 1341.945312 1104.8125 L 157.695312 1104.8125 Z M 157.695312 467 " clip-rule="nonzero"/></clipPath></defs><g transform="matrix(1, 0, 0, 1, 146, 1151)"><g clip-path="url(#0fcd082eed)"><g fill="#ffffff" fill-opacity="1"><g transform="translate(5.612229, 284.428448)"><g><path d="M 105.09375 0 L 65.578125 -139.203125 L 64.375 -139.203125 C 64.726562 -135.585938 65.101562 -130.695312 65.5 -124.53125 C 65.894531 -118.363281 66.269531 -111.707031 66.625 -104.5625 C 66.976562 -97.425781 67.15625 -90.554688 67.15625 -83.953125 L 67.15625 0 L 20.890625 0 L 20.890625 -193.28125 L 90.421875 -193.28125 L 130.75 -56.046875 L 131.8125 -56.046875 L 171.328125 -193.28125 L 241 -193.28125 L 241 0 L 193.015625 0 L 193.015625 -84.734375 C 193.015625 -90.816406 193.125 -97.363281 193.34375 -104.375 C 193.5625 -111.382812 193.828125 -117.992188 194.140625 -124.203125 C 194.453125 -130.421875 194.738281 -135.332031 195 -138.9375 L 193.8125 -138.9375 L 154.8125 0 Z M 105.09375 0 "/></g></g></g><g fill="#ffffff" fill-opacity="1"><g transform="translate(291.425473, 284.428448)"><g><path d="M 139.46875 0 L 129.953125 -36.21875 L 67.15625 -36.21875 L 57.375 0 L 0 0 L 63.0625 -194.078125 L 132.734375 -194.078125 L 196.578125 0 Z M 119.109375 -79.0625 L 110.78125 -110.78125 C 109.90625 -114.21875 108.628906 -119.128906 106.953125 -125.515625 C 105.273438 -131.910156 103.617188 -138.523438 101.984375 -145.359375 C 100.359375 -152.191406 99.101562 -157.8125 98.21875 -162.21875 C 97.425781 -157.8125 96.300781 -152.367188 94.84375 -145.890625 C 93.394531 -139.410156 91.898438 -132.992188 90.359375 -126.640625 C 88.816406 -120.296875 87.472656 -115.007812 86.328125 -110.78125 L 78 -79.0625 Z M 119.109375 -79.0625 "/></g></g></g><g fill="#ffffff" fill-opacity="1"><g transform="translate(512.07461, 284.428448)"><g><path d="M 106.15625 0 L 53.9375 0 L 53.9375 -150.578125 L 6.75 -150.578125 L 6.75 -193.28125 L 153.21875 -193.28125 L 153.21875 -150.578125 L 106.15625 -150.578125 Z M 106.15625 0 "/></g></g></g><g fill="#ffffff" fill-opacity="1"><g transform="translate(696.110171, 284.428448)"><g><path d="M 186.53125 0 L 134.046875 0 L 134.046875 -78.796875 L 73.375 -78.796875 L 73.375 0 L 20.890625 0 L 20.890625 -193.28125 L 73.375 -193.28125 L 73.375 -121.625 L 134.046875 -121.625 L 134.046875 -193.28125 L 186.53125 -193.28125 Z M 186.53125 0 "/></g></g></g><g fill="#ffffff" fill-opacity="1"><g transform="translate(927.597969, 284.428448)"><g><path d="M 20.890625 0 L 20.890625 -193.28125 L 73.375 -193.28125 L 73.375 0 Z M 20.890625 0 "/></g></g></g><g fill="#ffffff" fill-opacity="1"><g transform="translate(1045.940707, 284.428448)"><g><path d="M 147.265625 -58.703125 C 147.265625 -48.210938 144.617188 -38.273438 139.328125 -28.890625 C 134.046875 -19.503906 125.832031 -11.898438 114.6875 -6.078125 C 103.539062 -0.265625 89.148438 2.640625 71.515625 2.640625 C 62.703125 2.640625 54.96875 2.242188 48.3125 1.453125 C 41.664062 0.660156 35.476562 -0.632812 29.75 -2.4375 C 24.019531 -4.25 18.066406 -6.609375 11.890625 -9.515625 L 11.890625 -56.046875 C 22.378906 -50.765625 32.957031 -46.734375 43.625 -43.953125 C 54.289062 -41.179688 63.941406 -39.796875 72.578125 -39.796875 C 77.773438 -39.796875 82.023438 -40.410156 85.328125 -41.640625 C 88.640625 -42.878906 91.085938 -44.578125 92.671875 -46.734375 C 94.253906 -48.890625 95.046875 -51.378906 95.046875 -54.203125 C 95.046875 -57.554688 93.878906 -60.398438 91.546875 -62.734375 C 89.210938 -65.066406 85.488281 -67.507812 80.375 -70.0625 C 75.269531 -72.625 68.53125 -75.796875 60.15625 -79.578125 C 53.007812 -82.929688 46.550781 -86.367188 40.78125 -89.890625 C 35.007812 -93.421875 30.070312 -97.453125 25.96875 -101.984375 C 21.875 -106.523438 18.722656 -111.835938 16.515625 -117.921875 C 14.316406 -124.003906 13.21875 -131.1875 13.21875 -139.46875 C 13.21875 -151.894531 16.28125 -162.316406 22.40625 -170.734375 C 28.53125 -179.148438 37.078125 -185.472656 48.046875 -189.703125 C 59.023438 -193.941406 71.695312 -196.0625 86.0625 -196.0625 C 98.664062 -196.0625 110.015625 -194.648438 120.109375 -191.828125 C 130.203125 -189.003906 139.253906 -185.785156 147.265625 -182.171875 L 131.28125 -141.859375 C 122.988281 -145.640625 114.832031 -148.65625 106.8125 -150.90625 C 98.789062 -153.15625 91.347656 -154.28125 84.484375 -154.28125 C 79.984375 -154.28125 76.300781 -153.726562 73.4375 -152.625 C 70.570312 -151.519531 68.457031 -150.039062 67.09375 -148.1875 C 65.726562 -146.34375 65.046875 -144.234375 65.046875 -141.859375 C 65.046875 -138.859375 66.210938 -136.164062 68.546875 -133.78125 C 70.878906 -131.40625 74.800781 -128.828125 80.3125 -126.046875 C 85.820312 -123.273438 93.335938 -119.6875 102.859375 -115.28125 C 112.285156 -111.050781 120.300781 -106.488281 126.90625 -101.59375 C 133.519531 -96.707031 138.566406 -90.847656 142.046875 -84.015625 C 145.523438 -77.179688 147.265625 -68.742188 147.265625 -58.703125 Z M 147.265625 -58.703125 "/></g></g></g></g></g><g clip-path="url(#5076636b21)"><path fill="#1a1818" d="M 1232.015625 913.21875 L 1287.089844 1008.625 L 1342.164062 1104.007812 L 1121.867188 1104.007812 L 1176.941406 1008.625 Z M 1045.308594 467.296875 L 1122.3125 601.335938 L 878.597656 1102.621094 L 735.332031 1102.621094 Z M 267.816406 911.886719 L 157.695312 909.507812 L 263.6875 1102.648438 L 320.800781 1008.46875 L 377.964844 914.265625 Z M 444.015625 1104.007812 L 587.28125 1104.007812 L 831 602.71875 L 753.996094 468.679688 Z M 444.015625 1104.007812 " fill-opacity="1" fill-rule="nonzero"/></g></svg>